<?xml version="1.0" encoding="utf-8"?>
<!-- Generator: Adobe Illustrator 28.4.1, SVG Export Plug-In . SVG Version: 6.00 Build 0)  -->
<svg version="1.1" id="Livello_1" xmlns="http://www.w3.org/2000/svg" xmlns:xlink="http://www.w3.org/1999/xlink" x="0px" y="0px"
	 viewBox="0 0 808.6 200" style="enable-background:new 0 0 808.6 200;" xml:space="preserve">
<style type="text/css">
	.st0{fill:#FFFFFF;}
	.st1{fill:#FFC412;}
	.st2{opacity:0.58;}
	.st3{fill:#606060;}
</style>
<g>
	<g>
		<g>
			<g>
				<g>
					<path class="st0" d="M211.2,78.8c-2.7-3.5-7.7-5.8-11.9-5.8c-4.1,0-9.3,1.4-9.3,6.7c0,4.4,4,5.8,10.3,7.8
						c9.1,2.9,20.8,6.8,20.8,20.1c0,15.4-12.4,22.3-25.6,22.3c-9.5,0-19.1-3.5-25-9.6l10.6-10.8c3.2,4.1,9.1,7.1,14.4,7.1
						c4.9,0,9.2-1.9,9.2-7.3c0-5.1-5.1-6.7-13.9-9.5c-8.5-2.7-17.1-7.1-17.1-19.1c0-14.8,13.4-20.9,25.8-20.9c7.5,0,16,2.8,21.9,8.2
						L211.2,78.8z"/>
					<path class="st0" d="M243,128.2V61.4h44.9v13.7h-29.3v12.5h27.7v12.9h-27.7v13.9h31v13.8H243z"/>
					<path class="st0" d="M343.7,128.2c-21.2,0-35.7-12.4-35.7-34.2c0-20.3,15.6-34.3,36.2-34.3c20.8,0,35.9,14,35.9,34.1
						c0,10.2-5.1,18-9.9,21.7v0.3l14.1-0.3v12.8h-40.6V128.2z M344.3,74.2c-10.8,0-18.9,8.3-18.9,19.9c0,12,7.7,20.3,18.8,20.3
						c10.9,0,19-8.3,19-20.3C363.1,82.5,355.4,74.2,344.3,74.2z"/>
				</g>
				<g>
					<path class="st1" d="M415.7,64.2v37.6c0,14.2,6.3,20.3,14.8,20.3c9.4,0,15.5-6.2,15.5-20.3V64.2h8.3v37
						c0,19.5-10.3,27.5-24,27.5c-13,0-22.8-7.4-22.8-27.1V64.2H415.7z"/>
					<path class="st1" d="M512.7,98H488v22.9h27.5v6.9h-35.7V64.2h34.3v6.9H488v20.1h24.7L512.7,98L512.7,98z"/>
					<path class="st1" d="M537.5,127.8V64.2h9l20.3,32.2c4.7,7.4,8.4,14.1,11.4,20.6l0.2-0.1c-0.8-8.5-0.9-16.2-0.9-26.1V64.2h7.7
						v63.5h-8.3l-20.2-32.2c-4.4-7.1-8.7-14.3-11.9-21.2l-0.3,0.1c0.5,8,0.7,15.6,0.7,26.2v27.1L537.5,127.8L537.5,127.8z"/>
					<path class="st1" d="M622.9,71.2h-19.3v-7h47v7h-19.4v56.6h-8.3V71.2z"/>
					<path class="st1" d="M677.2,64.2v63.5H669V64.2H677.2z"/>
					<path class="st1" d="M713.1,107.8l-6.6,20H698l21.6-63.5h9.9l21.7,63.5h-8.8l-6.8-20H713.1z M733.9,101.4l-6.2-18.3
						c-1.4-4.1-2.4-7.9-3.3-11.6h-0.2c-0.9,3.8-2,7.6-3.2,11.5l-6.2,18.4C714.8,101.4,733.9,101.4,733.9,101.4z"/>
				</g>
			</g>
			<g>
				<g>
					<path class="st1" d="M135.4,35.7v20.6h-10.1c-24.6,0-44.5,20-44.5,44.5v10.1H60.2v-10.1c0-35.9,29.2-65.1,65.1-65.1L135.4,35.7
						 M140.5,30.6h-5.1h-10.1C86.5,30.6,55,62.1,55,100.9V111v5.1h5.1h20.7h5.1V111v-10.1c0-21.7,17.7-39.4,39.4-39.4h10.1h5.1v-5.1
						V35.7L140.5,30.6L140.5,30.6z"/>
				</g>
			</g>
			<g>
				<g>
					<path class="st1" d="M135.4,84.1v10.1c0,35.9-29.2,65.1-65.1,65.1H60.2v-20.6h10.1c24.6,0,44.5-20,44.5-44.5V84.1H135.4
						 M140.5,79h-5.1h-20.6h-5.1v5.1v10.1c0,21.7-17.7,39.4-39.4,39.4H60.2h-5.1v5.1v20.6v5.1h5.1h10.1c38.8,0,70.3-31.5,70.3-70.3
						v-10V79H140.5z"/>
				</g>
			</g>
		</g>
	</g>
	<g class="st2">
		<path class="st3" d="M410,168.3h13.3v2h-15.7v-22.2h15.2v2H410V168.3z M409.8,158.1h11.7v2h-11.7V158.1z"/>
		<path class="st3" d="M450.7,170.4l9.1-12.3v1.8l-8.6-11.7h2.7l7.2,9.8l-1,0l7.2-9.8h2.5l-8.5,11.5v-1.6l9.1,12.3h-2.7l-7.7-10.4h1
			l-7.6,10.4H450.7z"/>
		<path class="st3" d="M499.4,170.4v-22.2h8.3c1.9,0,3.5,0.3,4.8,0.9c1.4,0.6,2.4,1.5,3.1,2.6c0.7,1.1,1.1,2.5,1.1,4.1
			c0,1.6-0.4,2.9-1.1,4c-0.7,1.1-1.8,2-3.1,2.6c-1.4,0.6-3,0.9-4.8,0.9h-7l1-1.1v8.1H499.4z M501.8,162.4l-1-1.1h6.9
			c2.2,0,3.9-0.5,5.1-1.4c1.2-1,1.7-2.3,1.7-4.1c0-1.8-0.6-3.1-1.7-4.1c-1.2-1-2.8-1.5-5.1-1.5h-6.9l1-1.1V162.4z"/>
		<path class="st3" d="M547,170.4v-22.2h2.3v20.2h12.4v2H547z"/>
		<path class="st3" d="M600.3,170.6c-1.7,0-3.2-0.3-4.6-0.8c-1.4-0.6-2.7-1.4-3.7-2.4c-1-1-1.9-2.2-2.4-3.6
			c-0.6-1.4-0.9-2.9-0.9-4.5s0.3-3.1,0.9-4.5c0.6-1.4,1.4-2.6,2.4-3.6s2.3-1.8,3.7-2.4c1.4-0.6,3-0.8,4.7-0.8c1.7,0,3.2,0.3,4.6,0.8
			c1.4,0.6,2.6,1.3,3.7,2.4c1,1,1.9,2.2,2.4,3.6c0.6,1.4,0.9,2.9,0.9,4.5s-0.3,3.1-0.9,4.5c-0.6,1.4-1.4,2.6-2.4,3.6
			c-1,1-2.3,1.8-3.7,2.4C603.5,170.3,602,170.6,600.3,170.6z M600.3,168.5c1.3,0,2.6-0.2,3.7-0.7c1.1-0.5,2.1-1.1,2.9-1.9
			c0.8-0.8,1.5-1.8,1.9-2.9c0.5-1.1,0.7-2.3,0.7-3.7s-0.2-2.6-0.7-3.7c-0.5-1.1-1.1-2.1-1.9-2.9c-0.8-0.8-1.8-1.5-2.9-1.9
			c-1.1-0.5-2.4-0.7-3.7-0.7s-2.6,0.2-3.7,0.7s-2.1,1.1-3,1.9c-0.8,0.8-1.5,1.8-2,2.9s-0.7,2.3-0.7,3.7c0,1.3,0.2,2.5,0.7,3.6
			s1.1,2.1,2,2.9c0.8,0.8,1.8,1.5,3,1.9C597.7,168.2,599,168.5,600.3,168.5z"/>
		<path class="st3" d="M642.1,170.4v-22.2h8.3c1.9,0,3.5,0.3,4.8,0.9c1.4,0.6,2.4,1.5,3.1,2.6c0.7,1.1,1.1,2.5,1.1,4.1
			c0,1.6-0.4,2.9-1.1,4c-0.7,1.1-1.8,2-3.1,2.6s-3,0.9-4.8,0.9h-7l1-1.1v8.1H642.1z M644.4,162.4l-1-1.1h6.9c2.2,0,3.9-0.5,5.1-1.5
			s1.7-2.3,1.7-4.1c0-1.8-0.6-3.1-1.7-4.1c-1.2-1-2.8-1.5-5.1-1.5h-6.9l1-1.1V162.4z M657.2,170.4l-5.7-8h2.5l5.7,8H657.2z"/>
		<path class="st3" d="M692.2,168.3h13.3v2h-15.7v-22.2h15.2v2h-12.9V168.3z M691.9,158.1h11.7v2h-11.7V158.1z"/>
		<path class="st3" d="M735.9,170.4v-22.2h8.3c1.9,0,3.5,0.3,4.8,0.9c1.4,0.6,2.4,1.5,3.1,2.6c0.7,1.1,1.1,2.5,1.1,4.1
			c0,1.6-0.4,2.9-1.1,4c-0.7,1.1-1.8,2-3.1,2.6s-3,0.9-4.8,0.9h-7l1-1.1v8.1H735.9z M738.3,162.4l-1-1.1h6.9c2.2,0,3.9-0.5,5.1-1.5
			s1.7-2.3,1.7-4.1c0-1.8-0.6-3.1-1.7-4.1c-1.2-1-2.8-1.5-5.1-1.5h-6.9l1-1.1V162.4z M751.1,170.4l-5.7-8h2.5l5.7,8H751.1z"/>
	</g>
</g>
</svg>
