<svg width="1358" height="339" viewBox="0 0 1358 339" fill="none" xmlns="http://www.w3.org/2000/svg">
<mask id="mask0_1639_5541" style="mask-type:luminance" maskUnits="userSpaceOnUse" x="0" y="0" width="1358" height="339">
<path d="M1357.13 0H0V338.608H1357.13V0Z" fill="white"/>
</mask>
<g mask="url(#mask0_1639_5541)">
<path d="M192.118 17.9102H110.63L-0.4375 333.053H74.0821C74.0821 333.053 149.312 83.47 150.023 74.2262L212.312 289.109L225.822 333.053H300.769L192.26 18.0523L192.118 17.9102Z" fill="#FDC314"/>
<path d="M678.194 333.061H611.069V204.786C611.069 172.077 599.408 155.723 576.228 155.723C565.135 155.723 556.175 160.7 549.207 170.513C542.239 180.325 538.826 192.556 538.826 207.203V333.061H471.559V203.364C471.559 171.65 460.182 155.723 437.286 155.723C425.767 155.723 416.523 160.416 409.697 169.802C402.87 179.188 399.315 191.987 399.315 208.057V333.061H332.049V108.081H399.315V143.208H400.169C407.137 131.12 416.807 121.449 429.464 113.912C442.121 106.375 455.774 102.535 470.706 102.535C501.424 102.535 522.614 116.472 533.991 144.488C550.629 116.472 574.948 102.535 607.23 102.535C654.587 102.535 678.336 132.684 678.336 192.982V332.919L678.194 333.061Z" fill="white"/>
<path d="M799.647 306.894H798.794V333.061H731.527V0H798.794V141.928H799.647C816.286 115.761 839.893 102.535 870.611 102.535C898.769 102.535 920.385 112.49 935.46 132.4C950.676 152.309 958.214 179.614 958.214 214.172C958.214 251.716 949.397 281.723 931.62 304.477C913.844 327.231 890.236 338.465 860.514 338.465C833.636 338.465 813.442 327.942 799.647 306.894ZM797.656 212.039V235.077C797.656 249.583 801.638 261.671 809.744 271.057C817.85 280.585 828.232 285.278 840.889 285.278C856.248 285.278 868.051 279.163 876.584 266.933C884.975 254.702 889.241 237.352 889.241 215.025C889.241 196.395 885.401 181.89 877.58 171.366C869.9 160.842 858.807 155.722 844.444 155.722C830.934 155.722 819.841 160.984 810.882 171.366C802.065 181.747 797.514 195.258 797.514 212.039H797.656Z" fill="white"/>
<path d="M1143.96 170.653C1135.85 166.102 1126.47 163.827 1115.66 163.827C1101.01 163.827 1089.63 169.373 1081.38 180.466C1073.13 191.558 1069.01 206.633 1069.01 225.547V333.06H1001.74V108.08H1069.01V149.748H1069.86C1080.53 119.314 1099.73 104.098 1127.32 104.098C1134.43 104.098 1139.98 104.951 1143.96 106.8V170.795V170.653Z" fill="white"/>
<path d="M1356.71 333.061H1292.99V300.779H1292.14C1277.49 325.951 1255.87 338.608 1227.28 338.608C1206.09 338.608 1189.45 332.493 1177.36 319.978C1165.28 307.605 1159.16 291.109 1159.16 270.488C1159.16 226.829 1184.19 201.657 1234.25 194.973L1293.42 186.867C1293.42 162.264 1280.48 149.892 1254.73 149.892C1228.99 149.892 1204.1 157.856 1180.64 173.784V121.449C1190.02 116.472 1202.82 112.063 1219.04 108.224C1235.25 104.384 1250.04 102.535 1263.41 102.535C1325.56 102.535 1356.71 134.533 1356.71 198.528V333.061ZM1293.42 241.619V226.402L1253.88 231.664C1231.98 234.65 1221.03 244.748 1221.03 262.24C1221.03 270.204 1223.73 276.603 1228.99 281.723C1234.25 286.7 1241.51 289.26 1250.61 289.26C1263.27 289.26 1273.51 284.709 1281.47 275.75C1289.44 266.79 1293.42 255.271 1293.42 241.619Z" fill="white"/>
</g>
</svg>
