<?xml version="1.0" encoding="utf-8"?>
<!-- Generator: Adobe Illustrator 28.4.1, SVG Export Plug-In . SVG Version: 6.00 Build 0)  -->
<svg version="1.1" id="Livello_1" xmlns="http://www.w3.org/2000/svg" xmlns:xlink="http://www.w3.org/1999/xlink" x="0px" y="0px"
	 viewBox="0 0 32 32" style="enable-background:new 0 0 32 32;" xml:space="preserve">
<style type="text/css">
	.st0{fill:#5D6368;}
	.st1{fill:#FFFFFF;}
</style>
<g>
	<g>
		<path class="st0" d="M24.4,14c-0.8-1.9-1.9-3.6-3.4-5c-1.5-1.6-3.2-3-4.7-4.7c-0.3-0.4-0.4-0.1-0.6,0.1c-1.1,1.3-2.4,2.4-3.6,3.6
			c-1.5,1.3-2.7,2.9-3.7,4.5c-1.3,2.4-1.7,4.9-0.9,7.6c1,3.4,4.4,5.9,8,6.1l0,0c1.6,0.2,3.3-0.2,4.7-0.9
			C24.7,23.1,26.1,18.4,24.4,14z"/>
	</g>
	<path class="st1" d="M12.6,16.7l-0.2,0.9l1.9,0.4l0.2-0.9c0.2-0.9,0.7-1.7,1.5-2.3c0.8-0.5,1.8-0.7,2.7-0.5l0.9,0.2l0.4-1.9l-1-0.2
		C16.2,11.8,13.3,13.7,12.6,16.7z"/>
	<path class="st1" d="M15.6,19.3c-0.8,0.5-1.8,0.7-2.7,0.5L12,19.6l-0.4,1.9l0.9,0.2c1.4,0.3,2.9,0,4.1-0.8c1.2-0.8,2.1-2,2.4-3.5
		l0.2-0.9l-1.9-0.4l-0.2,1C17,18,16.4,18.8,15.6,19.3z"/>
</g>
</svg>
