<?xml version="1.0" encoding="utf-8"?>
<!-- Generator: Adobe Illustrator 28.4.1, SVG Export Plug-In . SVG Version: 6.00 Build 0)  -->
<svg version="1.1" id="Livello_1" xmlns="http://www.w3.org/2000/svg" xmlns:xlink="http://www.w3.org/1999/xlink" x="0px" y="0px"
	 viewBox="0 0 48 48" style="enable-background:new 0 0 48 48;" xml:space="preserve">
<style type="text/css">
	.st0{fill:#82898E;}
	.st1{fill:#B1B8BC;}
	.st2{fill:#111316;}
	.st3{fill:#FFC412;}
	.st4{fill:#FFC412;stroke:#111316;stroke-width:0.6;stroke-miterlimit:10;}
</style>
<g>
	<path class="st0" d="M24,1.2C11.4,1.2,1.2,11.4,1.2,24S11.4,46.8,24,46.8S46.8,36.6,46.8,24S36.6,1.2,24,1.2z"/>
	<path class="st1" d="M24,0C10.7,0,0,10.7,0,24c0,13.3,10.7,24,24,24s24-10.7,24-24C48,10.7,37.3,0,24,0z M24,46.8
		C11.4,46.8,1.2,36.6,1.2,24S11.4,1.2,24,1.2S46.8,11.4,46.8,24S36.6,46.8,24,46.8z"/>
</g>
<path class="st1" d="M15.9,24.7v2.4h4.9v-2.4c0-4.9,4-8.9,8.9-8.9h2.4v-4.9h-2.4C22.1,10.9,15.9,17.1,15.9,24.7z"/>
<path class="st1" d="M15.9,32.2v4.9h2.4c7.6,0,13.8-6.2,13.8-13.8v-2.4h-4.9v2.4c0,4.9-4,8.9-8.9,8.9H15.9z"/>
</svg>
